<svg width="760" height="288" viewBox="0 0 760 288" fill="none" xmlns="http://www.w3.org/2000/svg">
<g clip-path="url(#clip0_757_26)">
<path d="M476.9 88.0735H474.797V75.8912H482.814V77.5928H476.9V88.0735ZM487.605 93.992H485.501V75.8912H487.605V77.864C488.644 76.409 490.079 75.6692 491.91 75.6692C493.518 75.6692 494.855 76.2611 495.894 77.4448C496.933 78.6285 497.478 80.1575 497.478 81.9823C497.478 83.8319 496.933 85.3362 495.894 86.5199C494.855 87.7036 493.518 88.2954 491.91 88.2954C490.079 88.2954 488.644 87.5803 487.605 86.1006V93.992ZM487.654 81.9823C487.654 83.2647 488.001 84.3251 488.743 85.1635C489.46 86.002 490.376 86.3966 491.514 86.3966C492.603 86.3966 493.519 86.002 494.261 85.1635C495.003 84.3251 495.374 83.2647 495.374 81.9823C495.374 80.7 495.003 79.6642 494.261 78.8258C493.519 77.9873 492.603 77.5681 491.514 77.5681C490.376 77.5681 489.46 77.9873 488.743 78.8258C488.001 79.6642 487.654 80.7 487.654 81.9823ZM499.958 81.9823C499.958 80.1575 500.527 78.6285 501.666 77.4448C502.804 76.2611 504.239 75.6692 506.02 75.6692C507.777 75.6692 509.237 76.2611 510.375 77.4448C511.514 78.6285 512.083 80.1575 512.083 81.9823C512.083 83.8319 511.514 85.3362 510.375 86.5199C509.237 87.7036 507.777 88.2954 506.02 88.2954C504.239 88.2954 502.804 87.7036 501.666 86.5199C500.527 85.3362 499.958 83.8319 499.958 81.9823ZM502.061 81.9823C502.061 83.2647 502.433 84.3251 503.175 85.1635C503.917 86.002 504.858 86.3966 506.02 86.3966C507.159 86.3966 508.099 86.002 508.841 85.1635C509.584 84.3251 509.98 83.2647 509.98 81.9823C509.98 80.7 509.584 79.6642 508.841 78.8258C508.099 77.9873 507.159 77.5681 506.02 77.5681C504.858 77.5681 503.917 77.9873 503.175 78.8258C502.433 79.6642 502.061 80.7 502.061 81.9823ZM517.275 88.0735H515.32V75.8912H518.24L522.174 84.4977L526.133 75.8912H529.053V88.0735H527.073V78.4066L523.065 87.235H521.283L517.275 78.4066V88.0735ZM536.694 81.0699H540.629V80.0835C540.629 79.393 540.332 78.8011 539.763 78.3079C539.194 77.8147 538.501 77.5681 537.659 77.5681C536.843 77.5681 536.175 77.79 535.63 78.2339C535.086 78.6778 534.789 79.2204 534.74 79.8862H532.81C532.909 78.6532 533.403 77.6421 534.344 76.8529C535.284 76.0638 536.422 75.6692 537.808 75.6692C539.194 75.6692 540.381 76.0885 541.322 76.9269C542.262 77.7654 542.732 78.8011 542.732 80.0588V85.5088C542.732 85.8294 542.806 86.076 543.004 86.2733C543.177 86.4706 543.4 86.5445 543.697 86.5445C543.92 86.5445 544.142 86.4952 544.34 86.3719V87.8515C543.969 88.1228 543.499 88.2461 542.955 88.2461C542.361 88.2461 541.866 88.0982 541.47 87.7776C541.049 87.457 540.777 87.0377 540.678 86.4952C539.639 87.7036 538.278 88.2954 536.595 88.2954C535.334 88.2954 534.294 87.9748 533.502 87.2843C532.711 86.5939 532.315 85.7061 532.315 84.5964C532.315 83.5113 532.711 82.6728 533.502 82.0317C534.294 81.3905 535.358 81.0699 536.694 81.0699ZM534.418 84.5224C534.418 85.0896 534.641 85.5335 535.111 85.8787C535.556 86.224 536.175 86.3966 536.917 86.3966C537.907 86.3966 538.773 86.1006 539.515 85.4595C540.258 84.843 540.629 84.0538 540.629 83.1167V82.6482H537.066C536.274 82.6482 535.655 82.8208 535.16 83.166C534.665 83.5113 534.418 83.9552 534.418 84.5224ZM547.667 91.9205H545.761V86.3719H547.419C548.013 85.8294 548.434 84.7197 548.706 83.0674C548.953 81.4151 549.102 79.0231 549.102 75.8912H558.084V86.3719H560.286V91.9205H558.381V88.0735H547.667V91.9205ZM549.696 86.3719H555.981V77.5928H550.958C550.958 81.8837 550.537 84.8183 549.696 86.3719ZM573.069 80.7986H571.164C571.263 80.5027 571.312 80.1821 571.312 79.8615C571.312 79.1957 571.016 78.6532 570.471 78.2093C569.902 77.79 569.184 77.5681 568.294 77.5681C567.056 77.5681 566.067 77.9873 565.324 78.8011C564.582 79.6396 564.236 80.7 564.236 81.9823C564.236 83.2893 564.582 84.3497 565.324 85.1635C566.067 86.002 567.032 86.3966 568.244 86.3966C569.16 86.3966 569.927 86.1746 570.545 85.6814C571.164 85.2129 571.51 84.5964 571.609 83.8319H573.515C573.391 85.1389 572.822 86.1993 571.832 87.0377C570.818 87.8762 569.556 88.2954 568.071 88.2954C566.289 88.2954 564.854 87.7282 563.765 86.5445C562.677 85.3608 562.132 83.8565 562.132 81.9823C562.132 80.1328 562.677 78.6285 563.815 77.4448C564.953 76.2611 566.438 75.6692 568.269 75.6692C569.729 75.6692 570.917 76.0638 571.857 76.8036C572.797 77.5434 573.267 78.5052 573.267 79.6642C573.267 80.0835 573.193 80.4534 573.069 80.7986ZM576.698 88.0735V75.8912H578.801V80.5274H582.636C583.824 80.5274 584.789 80.8973 585.581 81.6124C586.348 82.3276 586.744 83.2154 586.744 84.3004C586.744 85.3855 586.348 86.2979 585.581 87.0131C584.789 87.7282 583.824 88.0735 582.636 88.0735H576.698ZM578.801 86.3719H582.34C582.983 86.3719 583.527 86.1746 583.973 85.7801C584.418 85.3855 584.641 84.8923 584.641 84.3004C584.641 83.7086 584.418 83.2154 583.973 82.8208C583.527 82.4262 582.983 82.2289 582.34 82.2289H578.801V86.3719ZM589.769 88.0735V75.8912H591.872V80.9959H593.332C593.901 80.9959 594.322 80.774 594.619 80.3054L596.945 77.0749C597.44 76.2364 598.182 75.8172 599.172 75.8172H600.087V77.5188H599.914C599.32 77.5188 598.875 77.7654 598.578 78.2339L596.054 81.8097L598.949 85.7307C599.246 86.2239 599.716 86.4459 600.31 86.4459H600.409V88.1475H599.592C598.603 88.1475 597.86 87.7282 597.316 86.8898L594.644 83.388C594.297 82.9441 593.877 82.6975 593.332 82.6975H591.872V88.0735H589.769ZM606.964 81.0699H610.898V80.0835C610.898 79.393 610.601 78.8011 610.032 78.3079C609.463 77.8147 608.77 77.5681 607.929 77.5681C607.112 77.5681 606.444 77.79 605.899 78.2339C605.355 78.6778 605.058 79.2204 605.009 79.8862H603.079C603.178 78.6532 603.673 77.6421 604.613 76.8529C605.553 76.0638 606.691 75.6692 608.077 75.6692C609.463 75.6692 610.65 76.0885 611.591 76.9269C612.531 77.7654 613.001 78.8011 613.001 80.0588V85.5088C613.001 85.8294 613.075 86.076 613.273 86.2733C613.447 86.4706 613.669 86.5445 613.966 86.5445C614.189 86.5445 614.412 86.4952 614.609 86.3719V87.8515C614.238 88.1228 613.768 88.2461 613.224 88.2461C612.63 88.2461 612.135 88.0982 611.739 87.7776C611.318 87.457 611.046 87.0377 610.947 86.4952C609.908 87.7036 608.547 88.2954 606.865 88.2954C605.603 88.2954 604.563 87.9748 603.772 87.2843C602.98 86.5939 602.584 85.7061 602.584 84.5964C602.584 83.5113 602.98 82.6728 603.772 82.0317C604.563 81.3905 605.627 81.0699 606.964 81.0699ZM604.687 84.5224C604.687 85.0896 604.91 85.5335 605.38 85.8787C605.825 86.224 606.444 86.3966 607.186 86.3966C608.176 86.3966 609.042 86.1006 609.784 85.4595C610.527 84.843 610.898 84.0538 610.898 83.1167V82.6482H607.335C606.543 82.6482 605.924 82.8208 605.429 83.166C604.934 83.5113 604.687 83.9552 604.687 84.5224ZM623.462 81.9823C623.462 80.1575 624.031 78.6285 625.169 77.4448C626.307 76.2611 627.742 75.6692 629.524 75.6692C631.281 75.6692 632.741 76.2611 633.879 77.4448C635.017 78.6285 635.586 80.1575 635.586 81.9823C635.586 83.8319 635.017 85.3362 633.879 86.5199C632.741 87.7036 631.281 88.2954 629.524 88.2954C627.742 88.2954 626.307 87.7036 625.169 86.5199C624.031 85.3362 623.462 83.8319 623.462 81.9823ZM625.565 81.9823C625.565 83.2647 625.936 84.3251 626.678 85.1635C627.421 86.002 628.361 86.3966 629.524 86.3966C630.662 86.3966 631.603 86.002 632.345 85.1635C633.087 84.3251 633.483 83.2647 633.483 81.9823C633.483 80.7 633.087 79.6642 632.345 78.8258C631.603 77.9873 630.662 77.5681 629.524 77.5681C628.361 77.5681 627.421 77.9873 626.678 78.8258C625.936 79.6642 625.565 80.7 625.565 81.9823ZM640.927 93.992H638.823V75.8912H640.927V77.864C641.966 76.409 643.401 75.6692 645.232 75.6692C646.841 75.6692 648.177 76.2611 649.216 77.4448C650.255 78.6285 650.8 80.1575 650.8 81.9823C650.8 83.8319 650.255 85.3362 649.216 86.5199C648.177 87.7036 646.841 88.2954 645.232 88.2954C643.401 88.2954 641.966 87.5803 640.927 86.1006V93.992ZM640.976 81.9823C640.976 83.2647 641.323 84.3251 642.065 85.1635C642.782 86.002 643.698 86.3966 644.836 86.3966C645.925 86.3966 646.841 86.002 647.583 85.1635C648.325 84.3251 648.696 83.2647 648.696 81.9823C648.696 80.7 648.325 79.6642 647.583 78.8258C646.841 77.9873 645.925 77.5681 644.836 77.5681C643.698 77.5681 642.782 77.9873 642.065 78.8258C641.323 79.6642 640.976 80.7 640.976 81.9823ZM656.151 88.0735H654.047V75.8912H662.064V77.5928H656.151V88.0735ZM668.076 81.0699H672.01V80.0835C672.01 79.393 671.713 78.8011 671.144 78.3079C670.575 77.8147 669.882 77.5681 669.041 77.5681C668.224 77.5681 667.556 77.79 667.011 78.2339C666.467 78.6778 666.17 79.2204 666.121 79.8862H664.191C664.29 78.6532 664.785 77.6421 665.725 76.8529C666.665 76.0638 667.803 75.6692 669.189 75.6692C670.575 75.6692 671.762 76.0885 672.703 76.9269C673.643 77.7654 674.113 78.8011 674.113 80.0588V85.5088C674.113 85.8294 674.187 86.076 674.385 86.2733C674.558 86.4706 674.781 86.5445 675.078 86.5445C675.301 86.5445 675.523 86.4952 675.721 86.3719V87.8515C675.35 88.1228 674.88 88.2461 674.336 88.2461C673.742 88.2461 673.247 88.0982 672.851 87.7776C672.43 87.457 672.158 87.0377 672.059 86.4952C671.02 87.7036 669.659 88.2954 667.977 88.2954C666.715 88.2954 665.675 87.9748 664.883 87.2843C664.092 86.5939 663.696 85.7061 663.696 84.5964C663.696 83.5113 664.092 82.6728 664.883 82.0317C665.675 81.3905 666.739 81.0699 668.076 81.0699ZM665.799 84.5224C665.799 85.0896 666.022 85.5335 666.492 85.8787C666.937 86.224 667.556 86.3966 668.298 86.3966C669.288 86.3966 670.154 86.1006 670.896 85.4595C671.639 84.843 672.01 84.0538 672.01 83.1167V82.6482H668.447C667.655 82.6482 667.036 82.8208 666.541 83.166C666.046 83.5113 665.799 83.9552 665.799 84.5224ZM680.508 88.0735H678.404V75.8912H680.508V81.0206H687.238V75.8912H689.341V88.0735H687.238V82.7222H680.508V88.0735ZM693.338 88.0735V75.8912H695.442V88.0735H693.338ZM693.017 71.4523C693.017 71.0577 693.14 70.7371 693.388 70.4905C693.635 70.2439 693.982 70.0959 694.378 70.0959C694.774 70.0959 695.095 70.2439 695.367 70.4905C695.615 70.7371 695.763 71.0577 695.763 71.4523C695.763 71.8468 695.615 72.1921 695.367 72.4387C695.095 72.71 694.774 72.8333 694.378 72.8333C693.982 72.8333 693.635 72.71 693.388 72.4387C693.14 72.1921 693.017 71.8468 693.017 71.4523ZM704.031 75.6692C705.416 75.6692 706.554 75.9898 707.445 76.631C708.311 77.2722 708.757 78.1106 708.757 79.1217C708.757 80.2808 708.212 81.1685 707.148 81.7604C707.792 82.0317 708.311 82.4262 708.707 82.9441C709.078 83.4866 709.276 84.0785 709.276 84.7197C709.276 85.8047 708.781 86.6678 707.841 87.309C706.901 87.9749 705.664 88.2954 704.13 88.2954C702.496 88.2954 701.185 87.9502 700.22 87.235C699.23 86.5199 698.76 85.5828 698.76 84.4237C698.76 84.0538 698.81 83.6839 698.958 83.3387H700.839C700.715 83.7332 700.665 84.0292 700.665 84.2511C700.665 84.8923 700.962 85.4348 701.581 85.8294C702.175 86.224 703.016 86.4212 704.055 86.4212C704.996 86.4212 705.763 86.2486 706.332 85.9034C706.876 85.5581 707.173 85.0649 707.173 84.4484C707.173 83.9552 706.975 83.5359 706.604 83.1907C706.208 82.8455 705.738 82.6728 705.194 82.6728H702.719V81.0699H704.698C705.268 81.0699 705.738 80.9219 706.109 80.5767C706.455 80.2561 706.653 79.8615 706.653 79.393C706.653 78.8504 706.381 78.4066 705.862 78.0613C705.342 77.7161 704.674 77.5434 703.833 77.5434C702.892 77.5434 702.15 77.7654 701.556 78.1846C700.962 78.6285 700.641 79.1957 700.591 79.9109H698.711C698.81 78.6038 699.354 77.5681 700.319 76.8036C701.259 76.0638 702.496 75.6692 704.031 75.6692ZM716.065 81.0699H719.999V80.0835C719.999 79.393 719.702 78.8011 719.133 78.3079C718.564 77.8147 717.871 77.5681 717.03 77.5681C716.214 77.5681 715.545 77.79 715.001 78.2339C714.457 78.6778 714.16 79.2204 714.11 79.8862H712.18C712.279 78.6532 712.774 77.6421 713.714 76.8529C714.655 76.0638 715.793 75.6692 717.179 75.6692C718.564 75.6692 719.752 76.0885 720.692 76.9269C721.633 77.7654 722.103 78.8011 722.103 80.0588V85.5088C722.103 85.8294 722.177 86.076 722.375 86.2733C722.548 86.4706 722.771 86.5445 723.068 86.5445C723.29 86.5445 723.513 86.4952 723.711 86.3719V87.8515C723.34 88.1228 722.87 88.2461 722.325 88.2461C721.732 88.2461 721.237 88.0982 720.841 87.7776C720.42 87.457 720.148 87.0377 720.049 86.4952C719.01 87.7036 717.649 88.2954 715.966 88.2954C714.704 88.2954 713.665 87.9748 712.873 87.2843C712.081 86.5939 711.685 85.7061 711.685 84.5964C711.685 83.5113 712.081 82.6728 712.873 82.0317C713.665 81.3905 714.729 81.0699 716.065 81.0699ZM713.789 84.5224C713.789 85.0896 714.011 85.5335 714.481 85.8787C714.927 86.224 715.545 86.3966 716.288 86.3966C717.278 86.3966 718.144 86.1006 718.886 85.4595C719.628 84.843 719.999 84.0538 719.999 83.1167V82.6482H716.436C715.644 82.6482 715.026 82.8208 714.531 83.166C714.036 83.5113 713.789 83.9552 713.789 84.5224ZM726.395 88.0735V75.8912H728.498V86.3719H735.031V75.8912H737.134V86.3719H739.336V91.9205H737.431V88.0735H726.395ZM742.077 88.0735V75.8912H744.181V88.0735H742.077ZM741.756 71.4523C741.756 71.0577 741.879 70.7371 742.127 70.4905C742.374 70.2439 742.721 70.0959 743.117 70.0959C743.513 70.0959 743.834 70.2439 744.106 70.4905C744.354 70.7371 744.502 71.0577 744.502 71.4523C744.502 71.8468 744.354 72.1921 744.106 72.4387C743.834 72.71 743.513 72.8333 743.117 72.8333C742.721 72.8333 742.374 72.71 742.127 72.4387C741.879 72.1921 741.756 71.8468 741.756 71.4523ZM747.252 88.1228V86.4212H747.672C748.167 86.4212 748.588 86.1746 748.934 85.6814L750.666 83.0427C750.691 83.0181 750.716 82.9934 750.716 82.9688C749.775 82.7961 749.008 82.4016 748.439 81.7851C747.87 81.1685 747.598 80.4041 747.598 79.5163C747.598 78.4805 747.969 77.6174 748.736 76.9269C749.503 76.2364 750.493 75.8912 751.681 75.8912H757.842V88.0735H755.739V83.3633H753.636C753.141 83.3633 752.77 83.5853 752.497 83.9798L750.518 87.0131C749.973 87.7529 749.305 88.1228 748.489 88.1228H747.252ZM752.052 81.6617H755.739V77.5681H752.052C751.359 77.5681 750.815 77.7654 750.369 78.16C749.924 78.5545 749.701 79.0724 749.701 79.6642C749.701 80.2561 749.924 80.7493 750.369 81.1192C750.815 81.4891 751.359 81.6617 752.052 81.6617Z" fill="white"/>
<path d="M132.56 246.606C196.008 246.606 247.443 195.344 247.443 132.11C247.443 68.8761 196.008 17.6147 132.56 17.6147C69.111 17.6147 17.6758 68.8761 17.6758 132.11C17.6758 195.344 69.111 246.606 132.56 246.606Z" stroke="white" stroke-width="10"/>
<path d="M132.56 41.8349C143.541 41.8349 152.443 32.9628 152.443 22.0184C152.443 11.0741 143.541 2.2019 132.56 2.2019C121.578 2.2019 112.676 11.0741 112.676 22.0184C112.676 32.9628 121.578 41.8349 132.56 41.8349Z" fill="#442200" stroke="white" stroke-width="5"/>
<path d="M243.024 151.926C254.006 151.926 262.908 143.054 262.908 132.11C262.908 121.166 254.006 112.293 243.024 112.293C232.043 112.293 223.141 121.166 223.141 132.11C223.141 143.054 232.043 151.926 243.024 151.926Z" fill="#442200" stroke="white" stroke-width="5"/>
<path d="M22.0947 151.926C33.0761 151.926 41.9784 143.054 41.9784 132.11C41.9784 121.166 33.0761 112.293 22.0947 112.293C11.1132 112.293 2.21094 121.166 2.21094 132.11C2.21094 143.054 11.1132 151.926 22.0947 151.926Z" fill="#442200" stroke="white" stroke-width="5"/>
<path d="M132.56 262.018C143.541 262.018 152.443 253.146 152.443 242.202C152.443 231.257 143.541 222.385 132.56 222.385C121.578 222.385 112.676 231.257 112.676 242.202C112.676 253.146 121.578 262.018 132.56 262.018Z" fill="#442200" stroke="white" stroke-width="5"/>
<path d="M141.217 114.672H116.827C114.191 114.672 112.055 116.801 112.055 119.428C112.055 122.054 114.191 124.184 116.827 124.184H141.217C143.853 124.184 145.99 122.054 145.99 119.428C145.99 116.801 143.853 114.672 141.217 114.672Z" fill="white"/>
<path d="M102.512 101.989C102.512 98.4872 105.361 95.6477 108.875 95.6477H130.084C133.597 95.6477 136.447 98.4872 136.447 101.989C136.447 105.491 133.597 108.33 130.084 108.33H108.875C105.361 108.33 102.512 105.491 102.512 101.989Z" fill="white"/>
<path d="M114.176 95.6477H148.111V108.33H114.176V95.6477Z" fill="white"/>
<path d="M161.896 96.1761C161.896 94.1332 160.234 92.4771 158.184 92.4771C156.134 92.4771 154.473 94.1332 154.473 96.1761V108.859C154.473 110.902 156.134 112.558 158.184 112.558C160.234 112.558 161.896 110.902 161.896 108.859V96.1761Z" fill="white"/>
<path d="M129.555 119.956C136.29 119.956 141.75 115.224 141.75 109.387C141.75 103.55 136.29 98.8184 129.555 98.8184C122.819 98.8184 117.359 103.55 117.359 109.387C117.359 115.224 122.819 119.956 129.555 119.956Z" fill="white"/>
<path d="M123.723 171.743C123.723 174.662 126.096 177.027 129.025 177.027C131.954 177.027 134.327 174.662 134.327 171.743H123.723ZM123.723 130.525V171.743H134.327V130.525H123.723Z" fill="white"/>
<path d="M150.86 169.03C152.554 171.409 155.865 171.969 158.252 170.281C160.641 168.592 161.203 165.293 159.508 162.913L150.86 169.03ZM127.879 136.753L150.86 169.03L159.508 162.913L136.527 130.637L127.879 136.753Z" fill="white"/>
<path d="M98.1859 163.401C96.4909 165.78 97.0529 169.079 99.4407 170.768C101.829 172.457 105.139 171.897 106.834 169.517L98.1859 163.401ZM121.516 130.637L98.1859 163.401L106.834 169.517L130.164 136.754L121.516 130.637Z" fill="white"/>
<path d="M139.627 130.525H118.418V142.15H139.627V130.525Z" fill="white"/>
<path d="M303.824 233.394H273.07L325.917 110.092H351.191L403.861 233.394H373.108L364.094 210.671H312.838L303.824 233.394ZM322.382 186.892H354.726L338.642 146.378L322.382 186.892ZM519.613 160.47H493.809C494.516 157.299 495.046 154.481 495.046 152.015C495.046 146.73 492.395 142.503 487.446 138.98C482.32 135.457 475.781 133.695 468.004 133.695C456.693 133.695 447.679 137.394 441.139 144.44C434.423 151.662 431.241 160.822 431.241 171.919C431.241 183.193 434.423 192.176 440.962 199.222C447.325 206.268 455.986 209.791 466.767 209.791C475.251 209.791 482.32 207.677 487.623 203.097C492.925 198.694 495.93 192.881 496.637 185.835H523.325C521.911 200.455 515.902 212.433 504.944 221.769C493.986 231.104 480.553 235.684 464.469 235.684C446.265 235.684 431.418 229.871 420.106 217.893C408.795 205.916 403.139 190.767 403.139 172.095C403.139 153.248 408.972 137.747 420.813 125.769C432.655 113.791 448.209 107.802 467.474 107.802C483.204 107.802 496.106 111.853 506.358 119.78C516.609 127.706 521.734 137.747 521.734 149.901C521.734 153.424 521.027 156.947 519.613 160.47ZM568.226 233.394H540.124V110.092H625.138V133.871H568.226V233.394ZM629.493 110.092H662.544L694.711 168.396L725.111 110.092H757.632L706.376 201.864C699.483 214.194 692.944 222.649 686.758 227.582C680.572 232.514 673.502 234.98 665.372 234.98C657.418 234.98 650.702 233.747 645.046 230.928V207.677C649.111 209.615 653.53 210.495 658.479 210.495C662.897 210.495 666.609 209.438 669.79 207.325C672.972 205.211 676.33 201.16 680.218 195.347L629.493 110.092Z" fill="white"/>
</g>
<defs>
<clipPath id="clip0_757_26">
<rect width="760" height="288" fill="white"/>
</clipPath>
</defs>
</svg>
