<svg width="126" height="126" viewBox="0 0 126 126" fill="none" xmlns="http://www.w3.org/2000/svg">
<g id="Logo_AC&#208;&#147;&#208;&#163;">
<path id="Vector" d="M62.999 115.69C92.2048 115.69 115.881 92.0546 115.881 62.8985C115.881 33.7424 92.2048 10.1067 62.999 10.1067C33.7932 10.1067 10.1172 33.7424 10.1172 62.8985C10.1172 92.0546 33.7932 115.69 62.999 115.69Z" stroke="#442200" stroke-width="5"/>
<path id="Vector_2" d="M63.0003 21.2741C68.0551 21.2741 72.1529 17.1833 72.1529 12.137C72.1529 7.09079 68.0551 3 63.0003 3C57.9454 3 53.8477 7.09079 53.8477 12.137C53.8477 17.1833 57.9454 21.2741 63.0003 21.2741Z" fill="white" stroke="#442200" stroke-width="5"/>
<path id="Vector_3" d="M113.848 72.0353C118.903 72.0353 123.001 67.9445 123.001 62.8983C123.001 57.852 118.903 53.7612 113.848 53.7612C108.793 53.7612 104.695 57.852 104.695 62.8983C104.695 67.9445 108.793 72.0353 113.848 72.0353Z" fill="white" stroke="#442200" stroke-width="5"/>
<path id="Vector_4" d="M12.1526 72.0353C17.2075 72.0353 21.3052 67.9445 21.3052 62.8983C21.3052 57.852 17.2075 53.7612 12.1526 53.7612C7.09777 53.7612 3 57.852 3 62.8983C3 67.9445 7.09777 72.0353 12.1526 72.0353Z" fill="white" stroke="#442200" stroke-width="5"/>
<path id="Vector_5" d="M63.0003 122.797C68.0551 122.797 72.1529 118.706 72.1529 113.66C72.1529 108.613 68.0551 104.523 63.0003 104.523C57.9454 104.523 53.8477 108.613 53.8477 113.66C53.8477 118.706 57.9454 122.797 63.0003 122.797Z" fill="white" stroke="#442200" stroke-width="5"/>
<path id="Vector_6" d="M66.9863 54.8578H55.7591C54.546 54.8578 53.5625 55.8396 53.5625 57.0507C53.5625 58.2618 54.546 59.2436 55.7591 59.2436H66.9863C68.1995 59.2436 69.183 58.2618 69.183 57.0507C69.183 55.8396 68.1995 54.8578 66.9863 54.8578Z" fill="#442200"/>
<path id="Vector_7" d="M49.168 49.01C49.168 47.3954 50.4794 46.0862 52.0968 46.0862H61.8596C63.477 46.0862 64.7884 47.3954 64.7884 49.01C64.7884 50.6247 63.477 51.9339 61.8596 51.9339H52.0968C50.4794 51.9339 49.168 50.6247 49.168 49.01Z" fill="#442200"/>
<path id="Vector_8" d="M54.5352 46.0862H70.1556V51.9339H54.5352V46.0862Z" fill="#442200"/>
<path id="Vector_9" d="M76.5029 46.3298C76.5029 45.3879 75.738 44.6243 74.7944 44.6243C73.8509 44.6243 73.0859 45.3879 73.0859 46.3298V52.1776C73.0859 53.1195 73.8509 53.8831 74.7944 53.8831C75.738 53.8831 76.5029 53.1195 76.5029 52.1776V46.3298Z" fill="#442200"/>
<path id="Vector_10" d="M61.6175 57.2943C64.7178 57.2943 67.2311 55.1125 67.2311 52.4212C67.2311 49.7299 64.7178 47.5481 61.6175 47.5481C58.5172 47.5481 56.0039 49.7299 56.0039 52.4212C56.0039 55.1125 58.5172 57.2943 61.6175 57.2943Z" fill="#442200"/>
<path id="Vector_11" d="M58.9336 81.1725C58.9336 82.5183 60.0262 83.6091 61.3743 83.6091C62.7224 83.6091 63.815 82.5183 63.815 81.1725H58.9336ZM58.9336 62.1675V81.1725H63.815V62.1675H58.9336Z" fill="#442200"/>
<path id="Vector_12" d="M71.4221 79.9213C72.202 81.0185 73.7258 81.2768 74.8249 80.4983C75.9244 79.7194 76.1831 78.1986 75.4029 77.101L71.4221 79.9213ZM60.8438 65.0393L71.4221 79.9213L75.4029 77.101L64.8245 62.2194L60.8438 65.0393Z" fill="#442200"/>
<path id="Vector_13" d="M47.1771 77.3259C46.3969 78.4232 46.6556 79.944 47.7548 80.7229C48.8543 81.5018 50.3777 81.2435 51.1579 80.1462L47.1771 77.3259ZM57.9162 62.2194L47.1771 77.3259L51.1579 80.1462L61.897 65.0397L57.9162 62.2194Z" fill="#442200"/>
<path id="Vector_14" d="M66.255 62.1675H56.4922V67.5279H66.255V62.1675Z" fill="#442200"/>
</g>
</svg>
